<?xml version="1.0" encoding="utf-8"?>
<svg version="1.1" id="Layer_1" x="0px" y="0px" width="701px" viewBox="0 0 701 142" enable-background="new 0 0 760 242" height="142px" xmlns="http://www.w3.org/2000/svg">
  <path opacity="1.000000" stroke="none" d="M 39.245 63.626 C 48.719 53.059 60.614 45.567 72.61 38.458 C 88.92 28.792 105.996 20.391 124.33 15.301 C 139.809 11.004 155.508 7.332 171.297 4.388 C 181.863 2.417 192.744 2.048 203.506 1.257 C 211.572 0.663 219.709 -0.11 227.749 0.348 C 242.279 1.174 256.883 2.082 271.231 4.371 C 291.775 7.649 312.256 11.603 332.504 16.373 C 352.013 20.968 371.217 26.881 390.511 32.372 C 411.032 38.212 431.347 44.855 452.04 49.988 C 469.257 54.26 486.825 57.263 504.362 60.042 C 515.653 61.832 527.153 62.485 538.589 63.139 C 554.909 64.072 571.281 65.41 587.585 64.945 C 602.03 64.534 616.437 62.087 630.816 60.198 C 652.6 57.336 673.554 51.043 694.352 44.199 C 696.112 43.62 697.817 42.869 699.548 42.199 C 699.776 42.564 700.004 42.929 700.232 43.294 C 697.065 45.273 693.994 47.432 690.715 49.203 C 666.958 62.033 642.093 71.87 615.305 76.165 C 604.87 77.838 594.367 79.505 583.836 80.062 C 567.282 80.938 550.66 81.481 534.099 81.013 C 520.903 80.64 507.724 78.799 494.594 77.156 C 477.998 75.079 461.414 72.825 444.911 70.123 C 428.969 67.513 413.164 64.081 397.247 61.3 C 382.563 58.735 367.81 56.564 353.091 54.193 C 351.217 53.891 349.369 53.431 347.348 53.01 C 347.589 92.384 326.547 118.857 297.73 140.751 C 297.23 140.462 296.73 140.173 296.23 139.884 C 300.021 132.955 303.989 126.115 307.568 119.077 C 314.55 105.346 319.541 90.764 320.704 75.484 C 321.403 66.3 319.212 56.823 314.969 48.244 C 314.542 47.38 313.451 46.443 312.537 46.281 C 296.926 43.519 281.357 40.385 265.648 38.352 C 252.325 36.628 238.848 35.859 225.413 35.309 C 213.432 34.818 201.386 34.691 189.421 35.344 C 176.218 36.064 163.054 37.684 149.911 39.23 C 137.649 40.672 125.35 42.071 113.225 44.331 C 99.942 46.807 86.726 49.832 73.693 53.395 C 62.597 56.428 51.803 60.563 40.28 64.074 C 39.539 63.833 39.392 63.73 39.245 63.626 Z" style="fill: rgb(136, 120, 96);"/>
  <path opacity="1.000000" stroke="none" d="M 68.94 100.223 C 72.464 102.467 77.269 102.983 77.065 108.523 C 76.824 115.055 72.921 119.558 67.822 121.982 C 62.153 124.677 55.701 126.397 49.437 127.037 C 33.785 128.638 18.098 129.641 3.418 136.074 C 2.882 136.309 2.152 136.104 0.405 136.104 C 4.033 125.997 7.033 116.112 11.124 106.701 C 14.688 98.502 19.378 90.779 23.766 82.956 C 27.252 76.743 32.669 73.827 39.889 74.181 C 48.789 74.617 57.701 74.804 66.602 75.234 C 71.302 75.461 77.233 79.328 78.009 82.386 C 79.078 86.599 76.532 91.741 71.688 95.022 C 69.718 96.357 67.679 97.591 65.59 98.923 C 66.417 99.281 67.486 99.744 68.94 100.223 M 46.48 116.206 C 47.805 116.16 49.557 116.638 50.376 115.97 C 52.789 114.005 56.154 111.859 56.689 109.275 C 57.382 105.931 54.118 104.201 50.51 104.089 C 44.454 103.902 38.405 103.439 32.349 103.315 C 31.585 103.299 30.5 104.484 30.063 105.362 C 27.905 109.69 25.916 114.102 23.813 118.601 C 25.994 118.439 27.577 118.379 29.146 118.196 C 34.631 117.556 40.11 116.875 46.48 116.206 M 60.591 89.26 C 54.792 83.963 47.771 87.128 41.56 86.123 C 39.284 90.277 37.216 94.05 34.938 98.206 C 41.147 98.206 46.767 98.3 52.382 98.176 C 56.809 98.078 60.506 94.409 60.591 89.26 Z" style="fill: rgb(136, 120, 96);"/>
  <path opacity="1.000000" stroke="none" d="M 596.922 8.196 C 606.406 15.367 610.996 24.452 610.13 36.283 C 609.827 40.417 609.088 42.39 604.293 42.315 C 586.486 42.04 568.655 41.724 550.867 42.36 C 537.008 42.856 535.412 33.258 537.719 24.045 C 540.846 11.559 550.35 6.03 561.793 2.882 C 572.873 -0.166 583.565 0.851 593.78 6.199 C 594.774 6.72 595.631 7.502 596.922 8.196 Z" style="fill: rgb(210, 123, 53);"/>
  <path opacity="1.000000" stroke="none" d="M 594.983 57.206 C 583.495 57.206 572.471 57.718 561.516 57.071 C 548.987 56.33 536.414 55.185 524.05 53.095 C 503.377 49.6 482.811 45.424 462.29 41.104 C 454.159 39.393 446.26 36.565 438.285 34.145 C 437.359 33.864 436.629 32.939 436.198 31.309 C 441.92 32.302 447.647 33.273 453.365 34.292 C 464.344 36.249 475.283 38.468 486.305 40.143 C 499.002 42.072 511.75 43.732 524.517 45.127 C 533.811 46.141 543.164 46.729 552.507 47.157 C 564.244 47.694 576.04 48.661 587.732 48.016 C 604.182 47.11 620.588 45.118 636.96 43.158 C 647.889 41.849 658.725 39.77 669.612 38.096 C 670.404 37.974 671.271 38.338 672.097 39.07 C 647.606 50.011 622.185 56.336 594.983 57.206 Z" style="fill: rgb(0, 134, 191);"/>
  <path opacity="1.000000" stroke="none" d="M 245.019 96.211 C 246.22 93.021 247.383 90.235 248.562 87.411 C 252.599 87.411 256.699 87.411 261.099 87.411 C 255.993 100.145 251.011 112.604 245.993 125.048 C 245.059 127.365 237.937 128.102 235.044 126.501 C 233.893 125.864 232.323 125.778 230.948 125.793 C 225.516 125.854 220.026 126.622 214.673 126.047 C 208.9 125.427 206.624 120.102 208.905 114.679 C 212.53 106.059 220.027 103.354 228.299 102.31 C 232.885 101.731 237.605 102.206 242.261 102.206 C 243.198 100.28 244.089 98.447 245.019 96.211 M 232.049 120.183 C 237.444 119.426 237.13 114.34 238.875 110.889 C 239.091 110.461 237.446 108.297 236.798 108.359 C 232.984 108.723 228.884 108.819 225.541 110.401 C 223.445 111.392 222.505 114.829 221.047 117.169 C 223.256 118.181 225.415 119.332 227.696 120.143 C 228.731 120.511 230.005 120.205 232.049 120.183 Z" style="fill: rgb(136, 120, 96);"/>
  <path opacity="1.000000" stroke="none" d="M 118.515 121.37 C 119.121 122.018 119.716 122.794 119.573 122.97 C 117.018 126.106 108.905 127.505 105.059 125.845 C 103.894 125.342 102.323 125.755 100.939 125.791 C 96.015 125.92 91.04 126.585 86.182 126.087 C 78.76 125.325 75.593 117.754 81.327 110.481 C 85.195 105.575 90.887 103.099 96.81 102.394 C 101.918 101.786 107.215 102.852 112.433 103.027 C 113.637 103.068 114.94 102.672 116.06 102.169 C 118.91 100.888 121.682 99.433 125.559 97.519 C 122.606 105.156 120.042 111.619 117.66 118.148 C 117.35 118.998 117.97 120.187 118.515 121.37 M 107.266 108.99 C 99.109 106.735 94.096 109.132 90.906 117.375 C 92.776 118.298 94.673 119.979 96.651 120.08 C 105.238 120.518 105.941 118.783 107.266 108.99 Z" style="fill: rgb(136, 120, 96);"/>
  <path opacity="1.000000" stroke="none" d="M 186.532 125.024 C 182.123 126.19 178.143 129.224 173.931 125.32 C 173.454 124.878 171.834 125.824 170.733 125.87 C 166.304 126.054 161.871 126.181 157.439 126.246 C 153.462 126.305 150.123 124.608 149.165 120.781 C 148.052 116.34 148.927 111.531 152.989 108.971 C 157.486 106.137 162.501 103.487 167.629 102.476 C 172.416 101.532 177.644 102.92 182.685 103.103 C 183.891 103.147 185.196 102.641 186.329 102.114 C 189.07 100.839 191.736 99.404 195.427 98.644 C 193.136 104.144 190.853 109.647 188.549 115.142 C 186.516 119.992 186.506 119.987 190.063 122.769 C 188.958 123.499 187.925 124.182 186.532 125.024 M 177.049 112.978 C 179.345 109.857 178.754 108.349 174.685 108.162 C 168.886 107.896 162.98 109.502 161.414 116.997 C 167 122.753 173.693 121.367 177.049 112.978 Z" style="fill: rgb(136, 120, 96);"/>
  <path opacity="1.000000" stroke="none" d="M 623.806 126.502 C 620.759 126.31 617.991 126.651 615.256 126.48 C 610.369 126.176 605.123 126.54 600.721 124.835 C 595.058 122.642 594.285 116.631 598.461 111.365 C 602.736 105.976 608.569 103.132 615.497 102.108 C 620.711 101.337 625.665 101.087 630.672 103.056 C 631.619 103.428 633.156 102.663 634.287 102.136 C 637.025 100.86 639.685 99.416 643.486 97.472 C 640.632 104.65 638.346 110.835 635.701 116.863 C 634.426 119.768 634.852 121.53 638.122 123.901 C 633.448 124.869 628.775 125.836 623.806 126.502 M 612.773 110.23 C 611.572 112.722 610.37 115.215 609.169 117.707 C 611.999 118.54 614.827 119.381 617.664 120.193 C 617.968 120.28 618.327 120.238 618.65 120.186 C 621.883 119.658 626.871 113.585 625.886 110.52 C 624.439 106.012 620.294 108.76 617.383 108.348 C 616.221 108.183 614.85 109.494 612.773 110.23 Z" style="fill: rgb(136, 120, 96);"/>
  <path opacity="1.000000" stroke="none" d="M 408.004 123.061 C 404.437 124.714 400.94 126.775 397.325 127.009 C 391.821 127.365 386.034 127.25 380.728 125.907 C 371.34 123.531 370.32 116.104 376.438 109.707 C 383.831 101.978 400.737 98.727 410.37 103.025 C 417.016 105.991 417.971 108.219 415.511 116.132 C 405.929 116.132 396.291 116.132 386.594 116.132 C 388.291 120.952 398.155 121.842 409.168 117.956 C 408.708 119.839 408.365 121.245 408.004 123.061 M 390.988 109.225 C 390.069 110.018 389.149 110.812 387.871 111.915 C 393.96 111.915 399.402 111.915 405.001 111.915 C 402.64 107.817 397.891 106.931 390.988 109.225 Z" style="fill: rgb(136, 120, 96);"/>
  <path opacity="1.000000" stroke="none" d="M 446.626 123.082 C 447.979 120.092 448.966 117.374 450.089 114.713 C 451.857 110.522 451.189 109.367 446.837 109.199 C 441.737 109.002 437.4 109.98 436.047 115.85 C 435.941 116.309 435.707 116.74 435.522 117.18 C 430.979 128.006 430.978 128.006 418.924 126.871 C 422.825 117.348 426.689 107.915 430.669 98.2 C 431.344 98.489 432.46 98.615 432.956 99.237 C 438.159 105.751 444.577 102.62 450.888 101.927 C 454.59 101.521 458.608 101.949 462.184 103.012 C 465.959 104.134 465.652 108.014 464.655 110.816 C 462.682 116.363 460.035 121.67 457.651 127.112 C 453.897 127.112 450.257 127.112 446.15 127.112 C 446.21 125.81 446.266 124.595 446.626 123.082 Z" style="fill: rgb(136, 120, 96);"/>
  <path opacity="1.000000" stroke="none" d="M 503.247 109.486 C 512.167 100.869 531.319 98.959 540.416 103.97 C 544.36 106.142 545.272 108.859 544.101 113.005 C 541.852 120.968 535.618 124.546 528.503 125.775 C 521.908 126.914 514.836 127.106 508.246 126.035 C 498.195 124.402 496.376 117.724 503.247 109.486 M 530.33 109.239 C 523.7 106.599 519.221 107.165 515.18 111.695 C 513.877 113.155 512.468 115.69 512.907 117.216 C 513.371 118.824 516.102 120.995 517.635 120.842 C 521.458 120.46 525.554 119.543 528.779 117.586 C 530.96 116.263 532.884 113.071 530.33 109.239 Z" style="fill: rgb(136, 120, 96);"/>
  <path opacity="1.000000" stroke="none" d="M 566.301 112.917 C 566.82 114.147 567.093 115.072 567.674 117.034 C 571.429 113.286 575.402 110.252 578.172 106.361 C 583.977 98.207 591.719 96.873 601.088 98.666 C 600.631 99.478 600.345 100.384 599.75 100.981 C 591.662 109.106 583.626 117.288 575.316 125.181 C 573.908 126.518 571.309 126.91 569.197 127.124 C 566.075 127.44 562.896 127.206 559.337 127.206 C 555.582 118.846 551.802 110.428 547.663 101.21 C 551.817 101.21 555.525 101.062 559.207 101.308 C 560.19 101.374 561.474 102.446 561.961 103.394 C 563.495 106.381 564.715 109.528 566.301 112.917 Z" style="fill: rgb(136, 120, 96);"/>
  <path opacity="1.000000" stroke="none" d="M 472.125 122.518 C 473.151 117.149 474.267 112.182 475.508 106.659 C 475.128 106.503 474.083 106.073 472.781 105.538 C 474.992 102.559 474.423 97.697 479.989 97.48 C 481.058 97.439 482.589 94.157 482.876 92.218 C 483.505 87.979 485.737 86.788 489.656 87.159 C 492.259 87.406 494.905 87.206 497.895 87.206 C 496.177 90.795 494.599 94.09 492.737 97.979 C 496.907 97.979 500.722 97.979 504.537 97.979 C 500.774 102.099 497.492 106.343 491.488 106.314 C 490.442 106.308 489.072 107.503 488.413 108.51 C 487.472 109.948 487.069 111.733 486.405 113.356 C 484.175 118.8 484.56 119.742 489.961 121.962 C 482.149 128.549 478.101 128.767 472.125 122.518 Z" style="fill: rgb(136, 120, 96);"/>
  <path opacity="1.000000" stroke="none" d="M 372.043 107.217 C 371.243 108.205 370.503 109.218 369.678 109.293 C 366.893 109.547 364.078 109.473 361.274 109.516 C 352.802 109.645 351.538 116.879 349.61 122.476 C 348.132 126.768 346.056 127.564 342.283 127.242 C 339.976 127.045 337.638 127.206 334.78 127.206 C 339.05 117.314 343.155 107.806 347.214 98.403 C 351.279 98.403 355.072 98.403 359.153 98.403 C 358.765 100.026 358.439 101.39 358.075 102.917 C 363.357 102.607 368.539 102.302 374.452 101.955 C 373.439 104.015 372.752 105.413 372.043 107.217 Z" style="fill: rgb(136, 120, 96);"/>
  <path opacity="1.000000" stroke="none" d="M 146.276 105.563 C 143.744 112.203 141.52 118.541 139.028 124.772 C 138.608 125.821 137.08 126.989 135.968 127.095 C 132.724 127.405 129.431 127.205 125.374 127.205 C 129.027 117.6 132.384 108.652 135.895 99.766 C 136.184 99.034 137.506 98.32 138.381 98.276 C 141.843 98.106 145.319 98.207 149.296 98.207 C 148.248 100.833 147.371 103.028 146.276 105.563 Z" style="fill: rgb(136, 120, 96);"/>
  <path opacity="1.000000" stroke="none" d="M 262.022 108.201 C 263.211 104.681 264.36 101.567 265.539 98.372 C 269.591 98.372 273.694 98.372 278.178 98.372 C 275.064 107.35 272.108 116.086 268.934 124.743 C 268.552 125.785 267.05 126.99 265.97 127.093 C 262.726 127.403 259.434 127.205 255.433 127.205 C 257.761 120.594 259.872 114.601 262.022 108.201 Z" style="fill: rgb(136, 120, 96);"/>
  <path opacity="1.000000" stroke="none" d="M 140.763 88.454 C 138.371 84.882 139.236 81.473 142.13 79.928 C 144.978 78.407 149.268 77.718 151.372 81.349 C 152.485 83.272 152.656 86.849 151.572 88.688 C 149.76 91.761 146.281 92.101 142.993 90.198 C 142.293 89.793 141.687 89.224 140.763 88.454 Z" style="fill: rgb(136, 120, 96);"/>
  <path opacity="1.000000" stroke="none" d="M 272.035 85.858 C 271.463 81.817 272.398 78.261 275.98 77.503 C 278.355 77 282.024 78.195 283.725 79.965 C 286.209 82.55 285.626 85.988 282.333 88.339 C 279.6 90.29 274.65 89.313 272.035 85.858 Z" style="fill: rgb(136, 120, 96);"/>
  <path opacity="1.000000" stroke="none" d="M 39.891 64.111 C 39.532 64.529 38.969 64.772 38.405 65.015 C 38.537 64.679 38.668 64.344 39.023 63.817 C 39.392 63.73 39.539 63.833 39.891 64.111 Z" style="fill: rgb(136, 120, 96);"/>
</svg>