<?xml version="1.0" standalone="no"?>
<!DOCTYPE svg PUBLIC "-//W3C//DTD SVG 20010904//EN"
 "http://www.w3.org/TR/2001/REC-SVG-20010904/DTD/svg10.dtd">
<svg version="1.0" xmlns="http://www.w3.org/2000/svg"
 width="94.000000pt" height="94.000000pt" viewBox="0 0 94.000000 94.000000"
 preserveAspectRatio="xMidYMid meet">
<metadata>
Created by potrace 1.14, written by Peter Selinger 2001-2017
</metadata>
<g transform="translate(0.000000,94.000000) scale(0.100000,-0.100000)"
fill="#000000" stroke="none">
<path d="M353 750 c-153 -43 -243 -135 -249 -255 -2 -55 15 -98 47 -115 22
-13 655 -17 667 -5 4 4 7 39 7 78 -1 104 -38 174 -126 240 -85 64 -234 88
-346 57z"/>
<path d="M20 286 c0 -43 2 -46 28 -47 15 0 38 -2 52 -4 209 -27 767 -26 812 2
5 2 8 21 8 43 l0 38 -72 -7 c-163 -14 -791 -3 -820 15 -4 3 -8 -15 -8 -40z"/>
</g>
</svg>
